<svg width="1440" height="739" viewBox="0 0 1440 739" fill="none" xmlns="http://www.w3.org/2000/svg">
<g clip-path="url(#clip0_87_29)">
<path d="M1440 0H0V739H1440V0Z" fill="#004C6B"/>
<g filter="url(#filter0_f_87_29)">
<path d="M1078.4 904.043C1393.87 904.043 1649.6 707.181 1649.6 464.338C1649.6 221.496 1393.87 24.6334 1078.4 24.6334C762.935 24.6334 507.2 221.496 507.2 464.338C507.2 707.181 762.935 904.043 1078.4 904.043Z" fill="#004C6B"/>
<path d="M1256 686.038C1571.47 686.038 1827.2 489.176 1827.2 246.333C1827.2 3.491 1571.47 -193.372 1256 -193.372C940.535 -193.372 684.8 3.491 684.8 246.333C684.8 489.176 940.535 686.038 1256 686.038Z" fill="#0C1B33"/>
<path d="M331.2 665.1C646.665 665.1 902.4 468.237 902.4 225.395C902.4 -17.4474 646.665 -214.31 331.2 -214.31C15.735 -214.31 -240 -17.4474 -240 225.395C-240 468.237 15.735 665.1 331.2 665.1Z" fill="#0C1B33"/>
<path d="M801.6 1033.37C1117.07 1033.37 1372.8 836.506 1372.8 593.663C1372.8 350.821 1117.07 153.958 801.6 153.958C486.135 153.958 230.4 350.821 230.4 593.663C230.4 836.506 486.135 1033.37 801.6 1033.37Z" fill="#004C6B"/>
<path d="M20.8001 908.97C336.265 908.97 592 712.107 592 469.265C592 226.423 336.265 29.56 20.8001 29.56C-294.665 29.56 -550.4 226.423 -550.4 469.265C-550.4 712.107 -294.665 908.97 20.8001 908.97Z" fill="#0C1B33"/>
</g>
</g>
<defs>
<filter id="filter0_f_87_29" x="-872.4" y="-536.31" width="3021.6" height="1891.68" filterUnits="userSpaceOnUse" color-interpolation-filters="sRGB">
<feFlood flood-opacity="0" result="BackgroundImageFix"/>
<feBlend mode="normal" in="SourceGraphic" in2="BackgroundImageFix" result="shape"/>
<feGaussianBlur stdDeviation="161" result="effect1_foregroundBlur_87_29"/>
</filter>
<clipPath id="clip0_87_29">
<rect width="1440" height="739" fill="white"/>
</clipPath>
</defs>
</svg>
