<svg width="276" height="52" viewBox="0 0 276 52" fill="none" xmlns="http://www.w3.org/2000/svg">
<path d="M63.9701 40.5005C62.2756 40.5005 60.7797 40.0724 59.4824 39.2164C58.185 38.3515 57.1701 37.1336 56.4376 35.5627C55.7051 33.9829 55.3388 32.1163 55.3388 29.9629C55.3388 27.8272 55.7051 25.9739 56.4376 24.403C57.1701 22.832 58.1894 21.6185 59.4956 20.7625C60.8018 19.9064 62.3109 19.4784 64.023 19.4784C65.3468 19.4784 66.3926 19.699 67.1604 20.1403C67.9371 20.5727 68.5284 21.067 68.9344 21.623C69.3491 22.1701 69.6713 22.6202 69.9007 22.9732H70.1655V12.9652H73.2897V40.0768H70.2714V36.9527H69.9007C69.6713 37.3233 69.3447 37.7911 68.9211 38.3559C68.4975 38.9119 67.893 39.4105 67.1075 39.8518C66.322 40.2842 65.2762 40.5005 63.9701 40.5005ZM64.3937 37.694C65.6469 37.694 66.7059 37.3674 67.5708 36.7144C68.4357 36.0525 69.0932 35.139 69.5433 33.9741C69.9934 32.8003 70.2184 31.4456 70.2184 29.91C70.2184 28.392 69.9978 27.0638 69.5565 25.9253C69.1153 24.778 68.4622 23.8867 67.5973 23.2512C66.7324 22.607 65.6645 22.2849 64.3937 22.2849C63.0699 22.2849 61.9667 22.6246 61.0842 23.3042C60.2105 23.9749 59.553 24.8883 59.1117 26.0445C58.6793 27.1918 58.463 28.4803 58.463 29.91C58.463 31.3574 58.6837 32.6723 59.1249 33.8549C59.575 35.0287 60.2369 35.9642 61.1106 36.6614C61.9932 37.3498 63.0875 37.694 64.3937 37.694ZM87.9707 40.5005C86.0115 40.5005 84.3214 40.068 82.9005 39.2031C81.4885 38.3294 80.3985 37.1115 79.6307 35.5494C78.8717 33.9785 78.4923 32.1516 78.4923 30.0689C78.4923 27.9861 78.8717 26.1504 79.6307 24.5618C80.3985 22.9644 81.4664 21.72 82.8343 20.8287C84.2111 19.9285 85.8173 19.4784 87.653 19.4784C88.7121 19.4784 89.7579 19.6549 90.7904 20.0079C91.823 20.3609 92.7629 20.9346 93.6101 21.7289C94.4574 22.5143 95.1325 23.5557 95.6356 24.853C96.1386 26.1504 96.3901 27.7478 96.3901 29.6452V30.969H80.7162V28.2685H93.213C93.213 27.1212 92.9835 26.0974 92.5246 25.1972C92.0745 24.297 91.4303 23.5866 90.5919 23.0659C89.7623 22.5452 88.7827 22.2849 87.653 22.2849C86.4086 22.2849 85.3319 22.5937 84.4229 23.2115C83.5227 23.8205 82.8299 24.6148 82.3445 25.5944C81.8591 26.574 81.6164 27.6242 81.6164 28.745V30.5454C81.6164 32.081 81.8812 33.3828 82.4107 34.4507C82.9491 35.5097 83.6948 36.3172 84.648 36.8732C85.6011 37.4204 86.7087 37.694 87.9707 37.694C88.7915 37.694 89.5328 37.5793 90.1947 37.3498C90.8654 37.1115 91.4435 36.7585 91.9289 36.2908C92.4143 35.8142 92.7894 35.2229 93.0541 34.5168L96.0724 35.3641C95.7547 36.3878 95.2208 37.288 94.4706 38.0647C93.7205 38.8325 92.7938 39.4326 91.6906 39.865C90.5874 40.2887 89.3475 40.5005 87.9707 40.5005ZM101.566 40.0768V12.9652H104.69V22.9732H104.955C105.185 22.6202 105.502 22.1701 105.908 21.623C106.323 21.067 106.914 20.5727 107.682 20.1403C108.459 19.699 109.509 19.4784 110.833 19.4784C112.545 19.4784 114.054 19.9064 115.36 20.7625C116.666 21.6185 117.686 22.832 118.418 24.403C119.151 25.9739 119.517 27.8272 119.517 29.9629C119.517 32.1163 119.151 33.9829 118.418 35.5627C117.686 37.1336 116.671 38.3515 115.374 39.2164C114.076 40.0724 112.58 40.5005 110.886 40.5005C109.58 40.5005 108.534 40.2842 107.748 39.8518C106.963 39.4105 106.358 38.9119 105.935 38.3559C105.511 37.7911 105.185 37.3233 104.955 36.9527H104.585V40.0768H101.566ZM104.637 29.91C104.637 31.4456 104.863 32.8003 105.313 33.9741C105.763 35.139 106.42 36.0525 107.285 36.7144C108.15 37.3674 109.209 37.694 110.462 37.694C111.768 37.694 112.858 37.3498 113.732 36.6614C114.615 35.9642 115.276 35.0287 115.718 33.8549C116.168 32.6723 116.393 31.3574 116.393 29.91C116.393 28.4803 116.172 27.1918 115.731 26.0445C115.299 24.8883 114.641 23.9749 113.759 23.3042C112.885 22.6246 111.786 22.2849 110.462 22.2849C109.191 22.2849 108.123 22.607 107.259 23.2512C106.394 23.8867 105.741 24.778 105.299 25.9253C104.858 27.0638 104.637 28.392 104.637 29.91ZM133.139 19.7431V22.3908H122.602V19.7431H133.139ZM125.673 14.8715H128.797V34.2521C128.797 35.1346 128.925 35.7965 129.181 36.2378C129.446 36.6702 129.781 36.9615 130.187 37.1115C130.602 37.2527 131.039 37.3233 131.498 37.3233C131.842 37.3233 132.124 37.3057 132.345 37.2704C132.565 37.2262 132.742 37.1909 132.874 37.1645L133.51 39.9709C133.298 40.0504 133.002 40.1298 132.623 40.2092C132.243 40.2975 131.762 40.3416 131.18 40.3416C130.297 40.3416 129.432 40.1519 128.585 39.7724C127.747 39.3929 127.05 38.8148 126.494 38.0382C125.946 37.2615 125.673 36.2819 125.673 35.0993V14.8715ZM144.722 40.4078C143.178 40.4078 141.779 40.0107 140.526 39.2164C139.282 38.4133 138.293 37.2351 137.561 35.6818C136.837 34.1197 136.475 32.2046 136.475 29.9365C136.475 27.6066 136.85 25.6694 137.6 24.125C138.35 22.5717 139.348 21.4111 140.592 20.6433C141.845 19.8667 143.218 19.4784 144.709 19.4784C145.848 19.4784 146.796 19.6725 147.555 20.0609C148.323 20.4404 148.941 20.9169 149.409 21.4906C149.885 22.0554 150.247 22.6114 150.494 23.1586H150.666V12.9652H156.292V40.0768H150.732V36.8203H150.494C150.229 37.3851 149.854 37.9455 149.369 38.5015C148.892 39.0487 148.27 39.5032 147.502 39.865C146.743 40.2269 145.817 40.4078 144.722 40.4078ZM146.51 35.9201C147.419 35.9201 148.186 35.673 148.813 35.1788C149.448 34.6757 149.934 33.9741 150.269 33.0739C150.613 32.1737 150.785 31.1191 150.785 29.91C150.785 28.7009 150.618 27.6507 150.282 26.7593C149.947 25.868 149.462 25.1796 148.826 24.6942C148.191 24.2088 147.419 23.9661 146.51 23.9661C145.583 23.9661 144.802 24.2176 144.166 24.7207C143.531 25.2237 143.05 25.9209 142.723 26.8123C142.397 27.7036 142.234 28.7362 142.234 29.91C142.234 31.0926 142.397 32.1384 142.723 33.0474C143.059 33.9476 143.54 34.6536 144.166 35.1655C144.802 35.6686 145.583 35.9201 146.51 35.9201ZM173.969 31.4191V19.7431H179.608V40.0768H174.194V36.3834H173.982C173.523 37.5748 172.76 38.5324 171.692 39.2561C170.633 39.9798 169.34 40.3416 167.813 40.3416C166.454 40.3416 165.258 40.0327 164.225 39.4149C163.193 38.7972 162.385 37.919 161.803 36.7806C161.229 35.6421 160.938 34.2786 160.929 32.69V19.7431H166.569V31.6839C166.577 32.8842 166.899 33.8329 167.535 34.5301C168.17 35.2273 169.022 35.5759 170.09 35.5759C170.769 35.5759 171.405 35.4214 171.996 35.1126C172.587 34.7948 173.064 34.3271 173.426 33.7093C173.797 33.0915 173.977 32.3282 173.969 31.4191ZM193.306 40.474C191.223 40.474 189.432 40.0327 187.931 39.1502C186.44 38.2588 185.293 37.0233 184.49 35.4435C183.695 33.8638 183.298 32.0457 183.298 29.9894C183.298 27.9066 183.7 26.0798 184.503 24.5089C185.315 22.9291 186.466 21.698 187.958 20.8154C189.449 19.9241 191.223 19.4784 193.28 19.4784C195.054 19.4784 196.607 19.8005 197.939 20.4448C199.272 21.089 200.327 21.9936 201.103 23.1586C201.88 24.3235 202.308 25.6915 202.387 27.2624H197.066C196.916 26.2475 196.519 25.4311 195.874 24.8133C195.239 24.1867 194.405 23.8734 193.372 23.8734C192.499 23.8734 191.735 24.1117 191.082 24.5883C190.438 25.056 189.935 25.74 189.573 26.6402C189.211 27.5404 189.03 28.6303 189.03 29.91C189.03 31.2073 189.207 32.3105 189.56 33.2195C189.922 34.1285 190.429 34.8213 191.082 35.2979C191.735 35.7745 192.499 36.0128 193.372 36.0128C194.017 36.0128 194.595 35.8804 195.107 35.6156C195.627 35.3508 196.055 34.9669 196.391 34.4639C196.735 33.952 196.96 33.3387 197.066 32.6238H202.387C202.299 34.1771 201.876 35.545 201.117 36.7276C200.366 37.9014 199.329 38.8192 198.006 39.4811C196.682 40.143 195.115 40.474 193.306 40.474ZM216.814 19.7431V23.9793H204.568V19.7431H216.814ZM207.348 14.8715H212.988V33.8285C212.988 34.3492 213.067 34.7551 213.226 35.0464C213.385 35.3288 213.606 35.5274 213.888 35.6421C214.179 35.7568 214.515 35.8142 214.894 35.8142C215.159 35.8142 215.424 35.7921 215.688 35.748C215.953 35.695 216.156 35.6553 216.297 35.6288L217.184 39.8253C216.902 39.9136 216.505 40.0151 215.993 40.1298C215.481 40.2534 214.859 40.3284 214.126 40.3548C212.767 40.4078 211.576 40.2269 210.552 39.8121C209.537 39.3973 208.747 38.753 208.182 37.8793C207.618 37.0056 207.34 35.9024 207.348 34.5698V14.8715ZM220.487 40.0768V19.7431H226.127V40.0768H220.487ZM223.32 17.122C222.482 17.122 221.763 16.844 221.162 16.288C220.571 15.7232 220.275 15.048 220.275 14.2626C220.275 13.4859 220.571 12.8196 221.162 12.2636C221.763 11.6988 222.482 11.4164 223.32 11.4164C224.159 11.4164 224.873 11.6988 225.465 12.2636C226.065 12.8196 226.365 13.4859 226.365 14.2626C226.365 15.048 226.065 15.7232 225.465 16.288C224.873 16.844 224.159 17.122 223.32 17.122ZM239.831 40.474C237.775 40.474 235.997 40.0371 234.496 39.1634C233.005 38.2809 231.853 37.0541 231.041 35.4832C230.229 33.9035 229.823 32.0722 229.823 29.9894C229.823 27.889 230.229 26.0533 231.041 24.4824C231.853 22.9026 233.005 21.6759 234.496 20.8022C235.997 19.9197 237.775 19.4784 239.831 19.4784C241.888 19.4784 243.662 19.9197 245.153 20.8022C246.653 21.6759 247.81 22.9026 248.622 24.4824C249.433 26.0533 249.839 27.889 249.839 29.9894C249.839 32.0722 249.433 33.9035 248.622 35.4832C247.81 37.0541 246.653 38.2809 245.153 39.1634C243.662 40.0371 241.888 40.474 239.831 40.474ZM239.858 36.1054C240.793 36.1054 241.574 35.8407 242.201 35.3111C242.828 34.7728 243.3 34.0403 243.618 33.1136C243.944 32.1869 244.107 31.1323 244.107 29.9497C244.107 28.7671 243.944 27.7125 243.618 26.7858C243.3 25.8591 242.828 25.1266 242.201 24.5883C241.574 24.0499 240.793 23.7808 239.858 23.7808C238.914 23.7808 238.119 24.0499 237.475 24.5883C236.84 25.1266 236.359 25.8591 236.032 26.7858C235.714 27.7125 235.556 28.7671 235.556 29.9497C235.556 31.1323 235.714 32.1869 236.032 33.1136C236.359 34.0403 236.84 34.7728 237.475 35.3111C238.119 35.8407 238.914 36.1054 239.858 36.1054ZM259.146 28.3214V40.0768H253.506V19.7431H258.881V23.3307H259.119C259.569 22.1481 260.324 21.2126 261.383 20.5242C262.442 19.827 263.726 19.4784 265.235 19.4784C266.647 19.4784 267.878 19.7873 268.929 20.405C269.979 21.0228 270.795 21.9054 271.378 23.0527C271.96 24.1911 272.251 25.5503 272.251 27.13V40.0768H266.612V28.1361C266.621 26.8917 266.303 25.9209 265.659 25.2237C265.015 24.5177 264.128 24.1647 262.998 24.1647C262.239 24.1647 261.568 24.3279 260.986 24.6545C260.412 24.981 259.962 25.4576 259.636 26.0842C259.318 26.702 259.155 27.4477 259.146 28.3214Z" fill="white"/>
<path fill-rule="evenodd" clip-rule="evenodd" d="M2.47448 0.0445226C1.48767 0.242802 0.429047 1.22598 0.0941627 2.2553C-0.0289202 2.63361 -0.0322263 4.27412 0.0894727 4.59084C0.636465 6.01438 1.56324 6.72434 3.01263 6.83019L3.58922 6.87226L3.55301 7.17382C3.42916 8.20608 3.53733 10.1056 3.78496 11.245C3.83001 11.4523 3.88605 11.7325 3.9095 11.8676C3.93295 12.0028 3.98292 12.132 4.02051 12.1548C4.05818 12.1776 4.08932 12.2706 4.08971 12.3614C4.09017 12.4523 4.21379 12.8659 4.36447 13.2805C4.51515 13.6952 4.66676 14.1192 4.70143 14.2229C4.89032 14.7883 5.86976 16.7889 6.38077 17.6532C6.85857 18.4615 7.03432 18.7372 7.64612 19.6384C8.78654 21.3184 10.1295 22.9871 11.8345 24.8424C12.8682 25.9673 12.8704 26.0614 11.8844 26.9989C11.6308 27.24 10.3317 28.7345 9.6538 29.565C7.67779 31.9858 6.10939 34.4514 5.07368 36.7649C4.71919 37.5568 4.21686 38.9068 4.09186 39.4036C4.05534 39.5487 3.97569 39.8541 3.91488 40.0821C3.78404 40.5728 3.65626 41.181 3.57423 41.703C3.49351 42.2168 3.49659 44.5184 3.57831 44.7752L3.64435 44.9826L3.23235 44.9829C2.42067 44.9835 1.31584 45.4882 0.802523 46.0928C0.146209 46.8658 -0.00308922 47.352 0.0370415 48.5859C0.0734051 49.7048 0.105233 49.8451 0.455262 50.4308C0.64769 50.7528 0.865795 50.976 1.26956 51.2641C1.79703 51.6404 1.93541 51.7179 2.42044 51.9091C2.72764 52.0303 35.4329 52.0303 35.7402 51.9091C36.205 51.7259 36.3553 51.6448 36.7732 51.3518C37.3624 50.9387 37.7073 50.513 37.9557 49.8921C38.1538 49.397 38.1628 49.3188 38.1325 48.3639C38.1026 47.4221 38.085 47.3259 37.8589 46.8673C37.4434 46.0248 36.6461 45.3655 35.7617 45.1336C35.293 45.0107 35.2163 44.9391 35.3059 44.7079C35.404 44.4548 35.3984 42.3285 35.2983 41.7722C35.0755 40.5363 35.0339 40.3489 34.7627 39.3659C34.3816 37.9844 33.4984 35.9734 32.5973 34.4358C32.3934 34.0878 32.2266 33.7924 32.2266 33.7793C32.2266 33.7663 31.9628 33.3556 31.6404 32.8666C31.094 32.0379 30.741 31.5404 29.9665 30.5074C29.3036 29.6234 27.6184 27.6558 26.7967 26.8063C26.263 26.2547 26.1547 26.0016 26.3158 25.6833C26.3743 25.5677 26.7378 25.1386 27.1236 24.7296C28.0932 23.7018 29.1073 22.5087 29.9025 21.4605C30.1385 21.1495 30.4602 20.7254 30.6176 20.5181C31.3842 19.508 32.6659 17.4154 33.319 16.1077C33.9209 14.9024 34.4841 13.4794 34.7662 12.4512C35.2578 10.6591 35.4044 9.62367 35.3534 8.30356C35.3311 7.72365 35.3016 7.169 35.288 7.07092C35.2663 6.91433 35.3157 6.87618 35.6948 6.75729C36.5695 6.48301 36.9574 6.22548 37.4492 5.59234C37.9223 4.98348 38.0693 4.45966 38.0693 3.3839C38.0693 2.88067 38.0304 2.37404 37.9829 2.25809C37.7988 1.80898 37.7205 1.6591 37.5028 1.33869C37.1928 0.882346 36.8926 0.630162 36.2627 0.296631L35.7245 0.0116519L19.2341 0.00102168C10.1643 -0.00478345 2.62247 0.014743 2.47448 0.0445226ZM31.8941 6.9288C31.9912 7.07883 31.955 9.31667 31.8481 9.77482C31.5431 11.0815 31.3762 11.6466 31.0467 12.4889C29.6982 15.936 26.8369 20.0213 22.9533 24.0445C22.1599 24.8664 21.9243 25.3161 21.9256 26.0057C21.9267 26.638 22.1772 27.0456 23.2826 28.2144C26.8786 32.0168 29.6949 36.0624 30.9141 39.1774C31.052 39.5299 31.1931 39.8861 31.2275 39.969C31.3666 40.3042 31.45 40.5755 31.6214 41.2507C31.8199 42.0321 31.8617 42.3989 31.894 43.6444L31.9287 44.9826H19.4311H6.93345V43.8097C6.93345 43.1646 6.96905 42.4776 7.01256 42.283C7.056 42.0884 7.12841 41.7596 7.17347 41.5523C7.26295 41.1397 7.29985 41.0134 7.59169 40.1198C7.94517 39.0374 8.82021 37.1932 9.5338 36.0265C9.66811 35.807 9.77796 35.6131 9.77796 35.5957C9.77796 35.5782 10.1734 34.9869 10.6566 34.2817C12.156 32.0937 13.6713 30.2247 15.5573 28.2372C16.1355 27.6279 16.6687 27.0158 16.7421 26.877C16.8161 26.7373 16.8915 26.3847 16.9112 26.0866C16.9615 25.3265 16.7606 24.9285 15.8459 23.9758C14.6608 22.7414 14.4572 22.5176 13.5924 21.4982C12.0472 19.6767 10.4593 17.5038 9.60345 16.0393C8.37754 13.9418 7.79857 12.6584 7.32146 10.9811C7.26841 10.7945 7.19399 10.5639 7.15609 10.4687C7.11819 10.3734 7.08721 10.1975 7.08721 10.0777C7.08721 9.95803 7.051 9.76668 7.00679 9.65254C6.92123 9.43195 6.8904 7.03933 6.97143 6.91071C7.04831 6.78873 31.815 6.80667 31.8941 6.9288ZM13.4174 19.0144C13.2793 19.3674 15.6048 21.8677 17.2736 23.1605C17.4851 23.3244 17.6753 23.48 17.6965 23.5064C17.8552 23.705 19.1357 24.5515 19.2775 24.5515C19.5943 24.5515 20.3963 23.9659 22.183 22.4297C23.8733 20.9765 25.3003 19.3367 25.1751 18.9914C25.1482 18.9171 23.9037 18.8972 19.3021 18.8972C14.0909 18.8972 13.4584 18.9098 13.4174 19.0144ZM18.965 27.7082C18.3751 27.9725 15.9385 30.1518 14.7219 31.5033C12.2395 34.261 10.6324 36.855 9.85046 39.3659C9.7988 39.5318 9.7293 39.7523 9.69601 39.8559C9.66272 39.9596 9.59938 40.2141 9.55517 40.4214C9.51097 40.6287 9.43924 40.9576 9.3958 41.1522C9.24558 41.8242 9.31646 42.2468 9.61752 42.4734C9.71185 42.5444 11.8974 42.5658 19.2607 42.5676L28.7817 42.57L29.0147 42.4073L29.2477 42.2446L29.2062 41.5215C29.1456 40.4631 28.7291 39.0157 28.0979 37.6696C27.952 37.3586 27.7769 36.9854 27.7087 36.8403C27.6405 36.6952 27.4529 36.361 27.2918 36.0975C27.1307 35.8341 26.9988 35.6037 26.9988 35.5855C26.9988 35.5098 25.7145 33.6742 25.3194 33.1852C23.6215 31.0836 20.5205 28.1 19.6313 27.7124C19.4481 27.6325 19.2924 27.5679 19.2853 27.5688C19.2783 27.5697 19.1341 27.6325 18.965 27.7082Z" fill="white"/>
<path fill-rule="evenodd" clip-rule="evenodd" d="M13.3674 18.9658C13.2279 19.321 15.5783 21.8372 17.2651 23.1383C17.4788 23.3032 17.6711 23.4598 17.6925 23.4864C17.8529 23.6863 19.1472 24.5381 19.2905 24.5381C19.6107 24.5381 20.4213 23.9488 22.2273 22.4028C23.9357 20.9403 25.3781 19.2901 25.2515 18.9426C25.2243 18.8679 23.9664 18.8478 19.3154 18.8478C14.0481 18.8478 13.4088 18.8604 13.3674 18.9658ZM18.9746 27.715C18.3784 27.9809 15.9156 30.1741 14.6859 31.5342C12.1769 34.3095 10.5525 36.92 9.76215 39.4469C9.70993 39.6138 9.63968 39.8357 9.60604 39.9401C9.57239 40.0444 9.50836 40.3004 9.46368 40.5091C9.419 40.7177 9.3465 41.0487 9.3026 41.2445C9.15076 41.9208 9.22241 42.3461 9.5267 42.5742C9.62204 42.6456 11.8311 42.6672 19.2735 42.669L28.8968 42.6714L29.1324 42.5077L29.3678 42.344L29.3259 41.6162C29.2647 40.551 28.8437 39.0945 28.2057 37.7398C28.0583 37.4268 27.8812 37.0512 27.8123 36.9052C27.7434 36.7591 27.5538 36.4228 27.3909 36.1577C27.2281 35.8926 27.0948 35.6607 27.0948 35.6424C27.0948 35.5662 25.7967 33.719 25.3973 33.2268C23.6812 31.1118 20.5469 28.1092 19.6481 27.7191C19.4629 27.6388 19.3056 27.5738 19.2984 27.5747C19.2913 27.5756 19.1456 27.6387 18.9746 27.715Z" fill="#FFE066"/>
</svg>
