<svg width="180" height="35" viewBox="0 0 180 35" fill="none" xmlns="http://www.w3.org/2000/svg">
<path d="M41.9024 26.948C40.7925 26.948 39.8126 26.6676 38.9628 26.1068C38.113 25.5403 37.4482 24.7425 36.9684 23.7135C36.4886 22.6788 36.2487 21.4561 36.2487 20.0456C36.2487 18.6466 36.4886 17.4326 36.9684 16.4036C37.4482 15.3746 38.1159 14.5797 38.9715 14.019C39.8271 13.4582 40.8156 13.1778 41.9371 13.1778C42.8042 13.1778 43.4893 13.3224 43.9922 13.6114C44.5009 13.8947 44.8882 14.2184 45.1542 14.5826C45.4259 14.941 45.6369 15.2358 45.7872 15.4671H45.9606V8.91153H48.007V26.6705H46.03V24.624H45.7872C45.6369 24.8668 45.423 25.1732 45.1455 25.5432C44.868 25.9074 44.472 26.234 43.9575 26.5231C43.443 26.8063 42.758 26.948 41.9024 26.948ZM42.1799 25.1096C43.0008 25.1096 43.6945 24.8957 44.261 24.4679C44.8275 24.0344 45.2582 23.4361 45.553 22.673C45.8479 21.9041 45.9953 21.0167 45.9953 20.0109C45.9953 19.0166 45.8508 18.1465 45.5617 17.4008C45.2727 16.6493 44.8449 16.0654 44.2784 15.6492C43.7118 15.2272 43.0123 15.0162 42.1799 15.0162C41.3127 15.0162 40.5901 15.2387 40.012 15.6839C39.4397 16.1232 39.0091 16.7215 38.72 17.4788C38.4367 18.2303 38.2951 19.0744 38.2951 20.0109C38.2951 20.9589 38.4396 21.8203 38.7287 22.5949C39.0235 23.3638 39.4571 23.9766 40.0294 24.4333C40.6075 24.8842 41.3243 25.1096 42.1799 25.1096ZM57.6236 26.948C56.3402 26.948 55.2332 26.6647 54.3024 26.0982C53.3775 25.5259 52.6636 24.7281 52.1606 23.7049C51.6635 22.6759 51.4149 21.4792 51.4149 20.1149C51.4149 18.7506 51.6635 17.5482 52.1606 16.5076C52.6636 15.4613 53.363 14.6462 54.2591 14.0623C55.1609 13.4727 56.213 13.1778 57.4155 13.1778C58.1092 13.1778 58.7942 13.2935 59.4706 13.5247C60.1469 13.7559 60.7626 14.1317 61.3176 14.652C61.8725 15.1665 62.3148 15.8486 62.6443 16.6984C62.9738 17.5482 63.1386 18.5945 63.1386 19.8374V20.7046H52.8717V18.9356H61.0574C61.0574 18.1841 60.9071 17.5135 60.6065 16.9239C60.3117 16.3342 59.8897 15.8688 59.3405 15.5278C58.7971 15.1867 58.1554 15.0162 57.4155 15.0162C56.6004 15.0162 55.8951 15.2185 55.2997 15.6232C54.71 16.022 54.2562 16.5423 53.9382 17.184C53.6203 17.8257 53.4613 18.5136 53.4613 19.2478V20.4271C53.4613 21.433 53.6348 22.2857 53.9816 22.9851C54.3342 23.6789 54.8227 24.2078 55.4471 24.572C56.0714 24.9304 56.7969 25.1096 57.6236 25.1096C58.1612 25.1096 58.6468 25.0345 59.0804 24.8842C59.5197 24.7281 59.8984 24.4969 60.2163 24.1905C60.5343 23.8783 60.78 23.491 60.9534 23.0285L62.9305 23.5835C62.7223 24.2541 62.3726 24.8437 61.8812 25.3524C61.3898 25.8554 60.7828 26.2485 60.0602 26.5317C59.3376 26.8092 58.5254 26.948 57.6236 26.948ZM66.5291 26.6705V8.91153H68.5755V15.4671H68.7489C68.8992 15.2358 69.1073 14.941 69.3733 14.5826C69.645 14.2184 70.0323 13.8947 70.5352 13.6114C71.044 13.3224 71.7319 13.1778 72.599 13.1778C73.7205 13.1778 74.709 13.4582 75.5646 14.019C76.4202 14.5797 77.0879 15.3746 77.5677 16.4036C78.0475 17.4326 78.2874 18.6466 78.2874 20.0456C78.2874 21.4561 78.0475 22.6788 77.5677 23.7135C77.0879 24.7425 76.4231 25.5403 75.5733 26.1068C74.7235 26.6676 73.7436 26.948 72.6337 26.948C71.7781 26.948 71.0931 26.8063 70.5786 26.5231C70.0641 26.234 69.6681 25.9074 69.3906 25.5432C69.1131 25.1732 68.8992 24.8668 68.7489 24.624H68.5061V26.6705H66.5291ZM68.5408 20.0109C68.5408 21.0167 68.6882 21.9041 68.9831 22.673C69.2779 23.4361 69.7086 24.0344 70.2751 24.4679C70.8416 24.8957 71.5353 25.1096 72.3562 25.1096C73.2118 25.1096 73.9257 24.8842 74.498 24.4333C75.0761 23.9766 75.5097 23.3638 75.7987 22.5949C76.0936 21.8203 76.241 20.9589 76.241 20.0109C76.241 19.0744 76.0965 18.2303 75.8074 17.4788C75.5242 16.7215 75.0935 16.1232 74.5154 15.6839C73.9431 15.2387 73.2234 15.0162 72.3562 15.0162C71.5238 15.0162 70.8243 15.2272 70.2577 15.6492C69.6912 16.0654 69.2634 16.6493 68.9744 17.4008C68.6853 18.1465 68.5408 19.0166 68.5408 20.0109ZM87.2103 13.3513V15.0855H80.3079V13.3513H87.2103ZM82.3196 10.1602H84.3661V22.8551C84.3661 23.4332 84.4499 23.8667 84.6175 24.1558C84.7909 24.439 85.0106 24.6298 85.2765 24.7281C85.5482 24.8206 85.8344 24.8668 86.135 24.8668C86.3605 24.8668 86.5455 24.8553 86.69 24.8321C86.8345 24.8032 86.9501 24.7801 87.0368 24.7628L87.4531 26.6011C87.3143 26.6531 87.1207 26.7052 86.8721 26.7572C86.6235 26.815 86.3084 26.8439 85.9269 26.8439C85.3488 26.8439 84.7823 26.7196 84.2273 26.471C83.6781 26.2225 83.2214 25.8438 82.8572 25.3351C82.4988 24.8264 82.3196 24.1847 82.3196 23.41V10.1602ZM94.7977 26.8873C93.786 26.8873 92.8698 26.6271 92.0489 26.1068C91.2338 25.5808 90.5863 24.809 90.1065 23.7916C89.6325 22.7684 89.3954 21.5139 89.3954 20.0282C89.3954 18.5021 89.6411 17.2331 90.1325 16.2215C90.6239 15.204 91.2771 14.4439 92.0922 13.9409C92.9131 13.4322 93.8121 13.1778 94.789 13.1778C95.5348 13.1778 96.1562 13.305 96.6534 13.5594C97.1563 13.808 97.561 14.1201 97.8674 14.4959C98.1795 14.8659 98.4165 15.2301 98.5784 15.5885H98.6911V8.91153H102.376V26.6705H98.7345V24.5373H98.5784C98.405 24.9073 98.1593 25.2744 97.8413 25.6386C97.5292 25.997 97.1216 26.2947 96.6187 26.5317C96.1215 26.7687 95.5145 26.8873 94.7977 26.8873ZM95.9683 23.9477C96.5638 23.9477 97.0667 23.7858 97.4771 23.4621C97.8934 23.1326 98.2113 22.673 98.431 22.0833C98.6565 21.4937 98.7692 20.8029 98.7692 20.0109C98.7692 19.2189 98.6593 18.531 98.4397 17.9471C98.22 17.3632 97.902 16.9123 97.4858 16.5944C97.0696 16.2764 96.5638 16.1174 95.9683 16.1174C95.3613 16.1174 94.8497 16.2822 94.4335 16.6117C94.0173 16.9412 93.7022 17.3979 93.4883 17.9818C93.2744 18.5656 93.1675 19.242 93.1675 20.0109C93.1675 20.7855 93.2744 21.4705 93.4883 22.066C93.708 22.6556 94.0231 23.1181 94.4335 23.4534C94.8497 23.7829 95.3613 23.9477 95.9683 23.9477ZM113.955 20.9994V13.3513H117.649V26.6705H114.102V24.2512H113.964C113.663 25.0316 113.163 25.6588 112.463 26.1328C111.77 26.6069 110.923 26.8439 109.923 26.8439C109.032 26.8439 108.249 26.6416 107.573 26.2369C106.896 25.8322 106.367 25.257 105.986 24.5113C105.61 23.7656 105.419 22.8724 105.414 21.8319V13.3513H109.108V21.1728C109.113 21.959 109.324 22.5805 109.741 23.0372C110.157 23.4939 110.715 23.7222 111.414 23.7222C111.859 23.7222 112.276 23.621 112.663 23.4187C113.05 23.2106 113.362 22.9042 113.599 22.4995C113.842 22.0949 113.961 21.5948 113.955 20.9994ZM126.622 26.9306C125.257 26.9306 124.084 26.6416 123.101 26.0635C122.124 25.4796 121.373 24.6703 120.846 23.6355C120.326 22.6007 120.066 21.4098 120.066 20.0629C120.066 18.6986 120.329 17.502 120.855 16.473C121.387 15.4382 122.141 14.6317 123.118 14.0536C124.095 13.4698 125.257 13.1778 126.604 13.1778C127.766 13.1778 128.784 13.3888 129.657 13.8108C130.529 14.2329 131.22 14.8254 131.729 15.5885C132.238 16.3516 132.518 17.2476 132.57 18.2766H129.084C128.986 17.6118 128.726 17.0771 128.304 16.6724C127.888 16.2619 127.341 16.0567 126.665 16.0567C126.093 16.0567 125.593 16.2128 125.165 16.525C124.743 16.8314 124.413 17.2794 124.176 17.869C123.939 18.4587 123.821 19.1726 123.821 20.0109C123.821 20.8607 123.936 21.5833 124.168 22.1787C124.405 22.7741 124.737 23.2279 125.165 23.5401C125.593 23.8523 126.093 24.0084 126.665 24.0084C127.087 24.0084 127.466 23.9217 127.801 23.7482C128.142 23.5748 128.422 23.3233 128.642 22.9938C128.867 22.6585 129.015 22.2567 129.084 21.7885H132.57C132.512 22.8059 132.235 23.702 131.738 24.4766C131.246 25.2455 130.567 25.8467 129.7 26.2803C128.833 26.7138 127.807 26.9306 126.622 26.9306ZM142.02 13.3513V16.1261H133.999V13.3513H142.02ZM135.82 10.1602H139.514V22.5776C139.514 22.9187 139.566 23.1846 139.67 23.3754C139.774 23.5603 139.918 23.6904 140.103 23.7656C140.294 23.8407 140.514 23.8783 140.762 23.8783C140.936 23.8783 141.109 23.8638 141.283 23.8349C141.456 23.8003 141.589 23.7742 141.682 23.7569L142.263 26.5057C142.078 26.5635 141.817 26.63 141.482 26.7052C141.147 26.7861 140.739 26.8352 140.259 26.8526C139.369 26.8873 138.589 26.7687 137.918 26.497C137.253 26.2253 136.736 25.8033 136.366 25.231C135.996 24.6587 135.814 23.9361 135.82 23.0632V10.1602ZM144.426 26.6705V13.3513H148.12V26.6705H144.426ZM146.282 11.6343C145.733 11.6343 145.261 11.4522 144.868 11.088C144.481 10.7181 144.287 10.2758 144.287 9.76132C144.287 9.2526 144.481 8.81614 144.868 8.45194C145.261 8.08197 145.733 7.89698 146.282 7.89698C146.831 7.89698 147.299 8.08197 147.686 8.45194C148.08 8.81614 148.276 9.2526 148.276 9.76132C148.276 10.2758 148.08 10.7181 147.686 11.088C147.299 11.4522 146.831 11.6343 146.282 11.6343ZM157.097 26.9306C155.75 26.9306 154.585 26.6445 153.603 26.0721C152.626 25.4941 151.871 24.6905 151.339 23.6615C150.807 22.6267 150.542 21.4272 150.542 20.0629C150.542 18.687 150.807 17.4846 151.339 16.4556C151.871 15.4208 152.626 14.6173 153.603 14.045C154.585 13.4669 155.75 13.1778 157.097 13.1778C158.444 13.1778 159.606 13.4669 160.583 14.045C161.566 14.6173 162.323 15.4208 162.855 16.4556C163.387 17.4846 163.653 18.687 163.653 20.0629C163.653 21.4272 163.387 22.6267 162.855 23.6615C162.323 24.6905 161.566 25.4941 160.583 26.0721C159.606 26.6445 158.444 26.9306 157.097 26.9306ZM157.114 24.0691C157.727 24.0691 158.239 23.8956 158.649 23.5488C159.06 23.1961 159.369 22.7163 159.577 22.1093C159.791 21.5023 159.898 20.8115 159.898 20.0369C159.898 19.2622 159.791 18.5714 159.577 17.9644C159.369 17.3574 159.06 16.8776 158.649 16.525C158.239 16.1723 157.727 15.996 157.114 15.996C156.496 15.996 155.976 16.1723 155.554 16.525C155.137 16.8776 154.822 17.3574 154.608 17.9644C154.4 18.5714 154.296 19.2622 154.296 20.0369C154.296 20.8115 154.4 21.5023 154.608 22.1093C154.822 22.7163 155.137 23.1961 155.554 23.5488C155.976 23.8956 156.496 24.0691 157.114 24.0691ZM169.749 18.9703V26.6705H166.055V13.3513H169.575V15.7012H169.731C170.026 14.9266 170.52 14.3138 171.214 13.8629C171.908 13.4062 172.749 13.1778 173.737 13.1778C174.662 13.1778 175.469 13.3802 176.157 13.7848C176.845 14.1895 177.379 14.7676 177.761 15.5191C178.142 16.2648 178.333 17.1551 178.333 18.1899V26.6705H174.639V18.8489C174.645 18.0338 174.437 17.3979 174.015 16.9412C173.593 16.4787 173.012 16.2475 172.272 16.2475C171.775 16.2475 171.335 16.3544 170.954 16.5683C170.578 16.7822 170.283 17.0944 170.069 17.5048C169.861 17.9095 169.754 18.398 169.749 18.9703Z" fill="white"/>
<path fill-rule="evenodd" clip-rule="evenodd" d="M1.62086 0.0291637C0.974468 0.159043 0.281039 0.803055 0.0616795 1.47729C-0.0189436 1.7251 -0.0211093 2.79969 0.0586074 3.00715C0.416905 3.93961 1.02397 4.40465 1.97337 4.47399L2.35105 4.50155L2.32734 4.69908C2.24621 5.37524 2.31706 6.61946 2.47927 7.3658C2.50878 7.5016 2.54549 7.68516 2.56085 7.77366C2.57621 7.8622 2.60894 7.94684 2.63356 7.96176C2.65824 7.97672 2.67863 8.03761 2.67889 8.09712C2.67919 8.15663 2.76016 8.42755 2.85886 8.69916C2.95757 8.97077 3.05687 9.24855 3.07958 9.31645C3.20331 9.68678 3.84487 10.9972 4.1796 11.5634C4.49258 12.0929 4.6077 12.2734 5.00845 12.8638C5.75546 13.9642 6.63516 15.0573 7.75195 16.2725C8.42906 17.0094 8.43052 17.071 7.78463 17.6852C7.61855 17.843 6.7676 18.822 6.32354 19.366C5.02919 20.9517 4.00184 22.5667 3.32342 24.0822C3.09122 24.6009 2.76218 25.4852 2.6803 25.8106C2.65638 25.9057 2.6042 26.1057 2.56437 26.255C2.47866 26.5765 2.39497 26.9749 2.34123 27.3168C2.28836 27.6533 2.29037 29.161 2.3439 29.3292L2.38716 29.465L2.11729 29.4652C1.58561 29.4656 0.861918 29.7962 0.525678 30.1922C0.0957718 30.6985 -0.00202354 31.017 0.0242633 31.8253C0.0480827 32.5582 0.068931 32.6501 0.298211 33.0337C0.424257 33.2447 0.567123 33.3909 0.831603 33.5796C1.17711 33.8261 1.26775 33.8769 1.58546 34.0021C1.78669 34.0815 23.2097 34.0815 23.4109 34.0021C23.7154 33.8821 23.8139 33.829 24.0876 33.637C24.4736 33.3664 24.6995 33.0876 24.8622 32.6809C24.992 32.3566 24.9978 32.3054 24.978 31.6798C24.9584 31.0629 24.9468 30.9999 24.7987 30.6996C24.5266 30.1477 24.0043 29.7159 23.425 29.5639C23.118 29.4834 23.0678 29.4365 23.1264 29.2851C23.1908 29.1193 23.1871 27.7265 23.1215 27.3621C22.9756 26.5525 22.9483 26.4298 22.7707 25.7859C22.521 24.881 21.9425 23.5637 21.3523 22.5566C21.2187 22.3285 21.1094 22.1351 21.1094 22.1265C21.1094 22.118 20.9366 21.8489 20.7254 21.5286C20.3675 20.9858 20.1363 20.66 19.629 19.9833C19.1948 19.4042 18.0909 18.1154 17.5527 17.559C17.2031 17.1976 17.1321 17.0319 17.2377 16.8234C17.276 16.7477 17.5141 16.4666 17.7668 16.1987C18.4019 15.5254 19.0662 14.7439 19.5871 14.0573C19.7416 13.8536 19.9524 13.5758 20.0555 13.44C20.5576 12.7783 21.3972 11.4076 21.825 10.551C22.2192 9.76155 22.5882 8.82943 22.7729 8.15594C23.095 6.98204 23.191 6.3038 23.1576 5.43909C23.143 5.05923 23.1237 4.69592 23.1148 4.63167C23.1005 4.5291 23.1329 4.50411 23.3812 4.42624C23.9542 4.24658 24.2082 4.07788 24.5304 3.66316C24.8403 3.26434 24.9366 2.92122 24.9366 2.21656C24.9366 1.88693 24.9111 1.55507 24.88 1.47912C24.7594 1.18494 24.7081 1.08676 24.5655 0.876884C24.3624 0.577964 24.1658 0.412776 23.7532 0.194303L23.4007 0.00763237L12.5989 0.000669234C6.65792 -0.00313331 1.7178 0.00965714 1.62086 0.0291637ZM20.8916 4.53858C20.9553 4.63686 20.9315 6.10271 20.8615 6.40282C20.6617 7.25873 20.5524 7.62891 20.3366 8.18063C19.4532 10.4385 17.579 13.1146 15.0351 15.7499C14.5154 16.2883 14.3611 16.5829 14.3619 17.0345C14.3627 17.4488 14.5268 17.7157 15.2508 18.4813C17.6064 20.972 19.4511 23.622 20.2497 25.6624C20.34 25.8933 20.4324 26.1266 20.455 26.181C20.5461 26.4005 20.6007 26.5782 20.713 27.0205C20.843 27.5324 20.8704 27.7726 20.8916 28.5884L20.9143 29.465H12.728H4.54163V28.6967C4.54163 28.2741 4.56494 27.8242 4.59345 27.6967C4.6219 27.5692 4.66933 27.3538 4.69884 27.218C4.75746 26.9478 4.78163 26.865 4.97279 26.2797C5.20434 25.5707 5.77751 24.3627 6.24494 23.5985C6.33291 23.4547 6.40487 23.3277 6.40487 23.3163C6.40487 23.3048 6.66386 22.9175 6.98041 22.4556C7.96255 21.0224 8.95515 19.7981 10.1905 18.4963C10.5693 18.0971 10.9185 17.6962 10.9666 17.6053C11.015 17.5138 11.0644 17.2828 11.0774 17.0875C11.1103 16.5897 10.9787 16.329 10.3795 15.7049C9.60326 14.8964 9.46991 14.7497 8.90343 14.082C7.89129 12.8889 6.8512 11.4655 6.29056 10.5063C5.48755 9.1323 5.10831 8.29164 4.79578 7.19295C4.76104 7.07073 4.71229 6.91967 4.68746 6.85729C4.66264 6.79492 4.64234 6.67966 4.64234 6.60124C4.64234 6.52282 4.61862 6.39748 4.58967 6.32272C4.53362 6.17822 4.51343 4.61098 4.5665 4.52673C4.61686 4.44683 20.8398 4.45858 20.8916 4.53858ZM8.78882 12.455C8.69838 12.6862 10.2216 14.324 11.3148 15.1709C11.4533 15.2782 11.5779 15.3801 11.5917 15.3975C11.6957 15.5275 12.5345 16.082 12.6274 16.082C12.8349 16.082 13.3602 15.6984 14.5306 14.6922C15.6378 13.7402 16.5725 12.6661 16.4905 12.44C16.4728 12.3913 15.6577 12.3782 12.6435 12.3782C9.22996 12.3782 8.81566 12.3865 8.78882 12.455ZM12.4227 18.1498C12.0363 18.3228 10.4402 19.7504 9.64329 20.6357C8.01729 22.442 6.96455 24.1412 6.45236 25.7859C6.41852 25.8945 6.373 26.039 6.35119 26.1069C6.32939 26.1748 6.28789 26.3415 6.25894 26.4773C6.22998 26.6131 6.183 26.8285 6.15454 26.9559C6.05614 27.3962 6.10257 27.6729 6.29978 27.8214C6.36156 27.8679 7.79319 27.8819 12.6163 27.8831L18.8529 27.8847L19.0056 27.7781L19.1581 27.6716L19.131 27.1979C19.0913 26.5046 18.8185 25.5565 18.405 24.6748C18.3095 24.4711 18.1947 24.2266 18.1501 24.1315C18.1054 24.0365 17.9825 23.8176 17.877 23.645C17.7714 23.4725 17.6851 23.3216 17.6851 23.3096C17.6851 23.26 16.8438 22.0577 16.585 21.7373C15.4728 20.3607 13.4416 18.4064 12.8591 18.1525C12.7391 18.1002 12.6371 18.0579 12.6325 18.0584C12.6279 18.059 12.5334 18.1001 12.4227 18.1498Z" fill="white"/>
<path fill-rule="evenodd" clip-rule="evenodd" d="M8.75606 12.4232C8.66465 12.6559 10.2042 14.304 11.3092 15.1563C11.4491 15.2643 11.5751 15.3669 11.5891 15.3843C11.6942 15.5152 12.542 16.0732 12.6359 16.0732C12.8456 16.0732 13.3766 15.6872 14.5595 14.6745C15.6786 13.7166 16.6234 12.6356 16.5405 12.408C16.5227 12.3591 15.6987 12.3459 12.6521 12.3459C9.20194 12.3459 8.78319 12.3542 8.75606 12.4232ZM12.429 18.1542C12.0384 18.3284 10.4252 19.765 9.61972 20.6559C7.97624 22.4738 6.91219 24.1837 6.39449 25.8389C6.36029 25.9483 6.31428 26.0936 6.29224 26.162C6.2702 26.2303 6.22826 26.3981 6.19899 26.5347C6.16972 26.6714 6.12223 26.8882 6.09348 27.0164C5.99402 27.4595 6.04095 27.738 6.24027 27.8874C6.30272 27.9342 7.74974 27.9483 12.6247 27.9495L18.9283 27.9511L19.0826 27.8439L19.2368 27.7366L19.2094 27.2599C19.1693 26.5622 18.8935 25.6081 18.4756 24.7207C18.379 24.5157 18.2631 24.2697 18.2179 24.1741C18.1728 24.0784 18.0486 23.8581 17.9419 23.6844C17.8352 23.5108 17.7479 23.3589 17.7479 23.3469C17.7479 23.297 16.8976 22.087 16.636 21.7646C15.5119 20.3792 13.4588 18.4124 12.8701 18.1569C12.7488 18.1043 12.6457 18.0617 12.641 18.0623C12.6364 18.0629 12.5409 18.1042 12.429 18.1542Z" fill="#FFE066"/>
</svg>
